<?xml version="1.0" standalone="no"?>
<!DOCTYPE svg PUBLIC "-//W3C//DTD SVG 20010904//EN"
 "http://www.w3.org/TR/2001/REC-SVG-20010904/DTD/svg10.dtd">
<svg version="1.0" xmlns="http://www.w3.org/2000/svg"
 width="2000.000000pt" height="2000.000000pt" viewBox="0 0 2000.000000 2000.000000"
 preserveAspectRatio="xMidYMid meet">

<g transform="translate(0.000000,2000.000000) scale(0.100000,-0.100000)"
fill="#000000" stroke="none">
<path d="M1836 13159 c-127 -17 -197 -66 -181 -126 9 -36 71 -94 144 -135 57
-32 58 -33 54 -69 -3 -20 -49 -272 -102 -560 l-97 -523 -45 2 c-54 3 -254 -23
-294 -38 -75 -29 -85 -74 -28 -132 l36 -37 -38 -83 c-21 -46 -47 -95 -57 -109
-66 -96 -99 -221 -79 -297 14 -51 56 -102 84 -102 50 -1 -12 -18 -120 -34
-204 -29 -282 -20 -333 42 -16 20 -30 41 -30 46 0 5 -28 61 -62 124 -64 118
-89 142 -145 142 -36 -1 -103 -31 -127 -59 -21 -23 -36 -27 -36 -10 0 16 -26
39 -45 39 -18 0 -65 43 -65 60 0 5 -10 10 -23 10 -12 0 -29 9 -37 20 -8 11
-22 20 -32 20 -10 0 -18 5 -18 10 0 6 -7 10 -15 10 -8 0 -15 5 -15 11 0 11
-24 39 -34 39 -3 0 -6 -648 -6 -1440 l0 -1440 46 0 c35 0 50 -5 64 -22 l18
-23 8864 -5 c4874 -3 9303 -3 9840 0 l977 5 23 23 23 23 3 1395 c1 950 -1
1408 -8 1435 -6 21 -20 43 -30 49 -16 8 -20 21 -20 60 l0 50 -45 0 c-25 0 -45
-4 -45 -10 0 -6 -37 -10 -90 -10 -53 0 -90 -4 -90 -10 0 -6 -33 -10 -80 -10
-64 0 -80 -3 -80 -15 0 -12 -16 -15 -80 -15 -47 0 -80 -4 -80 -10 0 -6 -33
-10 -80 -10 -47 0 -80 -4 -80 -10 0 -6 -32 -10 -75 -10 -43 0 -75 -4 -75 -10
0 -6 -37 -10 -90 -10 -73 0 -90 -3 -90 -15 0 -12 -14 -15 -70 -15 -40 0 -70
-4 -70 -10 0 -6 -32 -10 -75 -10 -43 0 -75 -4 -75 -10 0 -6 -30 -10 -70 -10
-40 0 -70 -4 -70 -10 0 -5 -6 -10 -12 -10 -9 0 -13 21 -13 73 0 64 -4 79 -28
116 -16 23 -43 51 -62 62 -21 13 -36 31 -40 48 -9 41 -63 101 -109 122 -164
75 -342 -64 -305 -239 12 -58 59 -121 110 -147 22 -12 59 -63 59 -82 0 -1 -16
-3 -35 -3 -19 0 -35 -4 -35 -10 0 -6 -33 -10 -80 -10 -47 0 -80 -4 -80 -10 0
-6 -33 -10 -80 -10 -64 0 -80 -3 -80 -15 0 -12 -14 -15 -65 -15 -37 0 -65 -4
-65 -10 0 -6 -37 -10 -90 -10 -71 0 -99 4 -130 20 -22 11 -47 20 -56 20 -14 0
-16 7 -11 44 6 41 4 47 -24 70 -42 35 -130 60 -190 53 -151 -18 -259 -134
-259 -279 l0 -38 -70 0 c-40 0 -70 -4 -70 -10 0 -6 -33 -10 -80 -10 -64 0 -80
-3 -80 -15 0 -8 -3 -15 -6 -15 -14 0 -103 99 -128 143 -55 97 -175 155 -297
143 -217 -20 -409 -147 -544 -360 -42 -65 -52 -76 -77 -76 -18 0 -28 -5 -28
-15 0 -10 -11 -15 -35 -15 l-35 0 0 68 c0 84 -34 160 -87 196 -21 15 -44 44
-58 74 -57 124 -226 168 -371 97 -38 -18 -85 -56 -132 -103 -75 -75 -80 -75
-51 6 5 13 9 28 9 33 0 6 -78 8 -201 7 l-201 -3 -92 -292 c-51 -160 -100 -298
-109 -307 -10 -10 -33 -16 -66 -16 -39 0 -51 -4 -51 -15 0 -11 -11 -15 -40
-15 -22 0 -40 4 -40 8 0 4 36 118 79 253 l79 244 -78 3 -78 3 24 77 c13 42 24
78 24 80 0 1 -90 2 -200 2 l-199 0 -12 -41 c-12 -38 -14 -40 -26 -23 -34 47
-72 79 -123 103 -47 22 -69 26 -150 26 -84 0 -102 -3 -153 -28 -155 -77 -319
-317 -401 -589 -30 -99 -56 -242 -56 -309 0 -46 -2 -49 -25 -49 -16 0 -25 -6
-25 -15 0 -11 -11 -15 -36 -15 -25 0 -35 4 -31 13 101 235 120 307 121 467 1
117 -1 129 -27 184 -15 32 -48 80 -75 106 -26 26 -59 68 -74 93 -31 53 -94
102 -150 117 -21 6 -69 10 -106 8 l-67 -3 5 -35 c3 -19 5 -98 4 -175 -2 -220
-58 -453 -155 -647 -21 -42 -43 -79 -48 -82 -10 -7 71 317 143 568 25 87 46
160 46 162 0 2 -36 4 -80 4 -44 0 -80 1 -80 3 0 1 9 34 20 72 11 38 20 73 20
77 0 5 -92 8 -205 8 l-204 0 -25 -82 c-14 -46 -59 -207 -101 -358 -53 -189
-91 -305 -122 -373 -83 -175 -72 -130 73 327 53 164 98 305 101 312 4 11 -13
14 -80 14 l-86 0 25 72 c13 39 24 75 24 80 0 4 -90 8 -200 8 -110 0 -200 -2
-200 -4 0 -2 -50 -159 -110 -347 -109 -338 -150 -497 -150 -579 0 -51 -49
-149 -92 -186 -29 -24 -82 -33 -92 -15 -3 5 14 47 39 93 41 77 95 206 95 227
0 5 -17 13 -37 18 l-37 9 -35 -71 c-19 -40 -36 -63 -38 -54 -4 17 65 253 162
549 l64 195 -84 3 -83 3 24 77 c13 42 24 78 24 80 0 1 -90 2 -200 2 l-199 0
-12 -41 c-12 -38 -14 -40 -26 -23 -34 47 -72 79 -123 103 -47 22 -69 26 -150
26 -84 0 -102 -3 -153 -28 -237 -117 -457 -571 -457 -944 0 -88 -2 -100 -32
-156 -36 -67 -79 -101 -118 -91 -14 3 -26 7 -28 9 -2 2 17 38 42 82 44 75 96
199 96 227 0 11 -46 36 -66 36 -1 0 -17 -31 -35 -70 -26 -58 -69 -118 -69 -98
0 4 36 125 81 270 113 368 116 444 18 538 -26 25 -50 57 -54 71 -29 114 -211
181 -350 129 -47 -18 -77 -41 -148 -111 -104 -103 -110 -103 -157 -9 -36 71
-88 113 -161 130 -112 27 -222 -14 -330 -122 l-68 -67 20 56 c10 31 19 58 19
60 0 1 -90 3 -200 3 -110 0 -200 -2 -200 -4 0 -1 -90 -286 -200 -632 -110
-346 -200 -632 -200 -636 0 -5 38 -8 85 -8 47 0 85 -2 85 -4 0 -2 -6 -21 -13
-42 -8 -22 -17 -51 -21 -66 l-6 -28 189 0 190 0 56 178 c176 553 216 670 251
729 21 35 39 61 41 59 3 -3 -226 -766 -244 -813 -4 -10 16 -13 81 -13 47 0 86
-3 86 -7 0 -5 -9 -36 -19 -70 l-19 -63 202 0 201 0 120 388 c110 356 166 505
210 557 12 14 15 15 12 4 -3 -9 -28 -87 -57 -175 -94 -292 -119 -441 -90 -546
14 -47 55 -97 96 -114 23 -10 33 -22 38 -45 8 -43 63 -95 117 -110 75 -21 195
-16 264 11 84 32 201 152 269 274 l50 88 23 -45 c12 -25 41 -61 64 -79 52 -41
62 -52 102 -107 19 -26 52 -55 79 -69 56 -29 154 -39 215 -23 53 15 128 71
188 142 l47 57 36 -24 c19 -13 38 -24 41 -24 3 0 17 -21 31 -47 16 -29 41 -57
69 -75 42 -26 43 -28 18 -28 -15 0 -27 -4 -27 -10 0 -5 -20 -10 -45 -10 -33 0
-45 -4 -45 -15 0 -11 -12 -15 -45 -15 -25 0 -45 -4 -45 -10 0 -5 -25 -10 -55
-10 -30 0 -55 -4 -55 -10 0 -5 -20 -10 -45 -10 -25 0 -45 -4 -45 -10 0 -5 -20
-10 -45 -10 -33 0 -45 -4 -45 -15 0 -11 -12 -15 -45 -15 -25 0 -45 -4 -45 -10
0 -5 -20 -10 -45 -10 -25 0 -45 -4 -45 -10 0 -5 -20 -10 -45 -10 -25 0 -45 -4
-45 -10 0 -5 -20 -10 -45 -10 -33 0 -45 -4 -45 -15 0 -11 -12 -15 -45 -15 -25
0 -45 -4 -45 -10 0 -5 -20 -10 -45 -10 -25 0 -45 -4 -45 -10 0 -5 -20 -10 -45
-10 -25 0 -45 -4 -45 -10 0 -5 -20 -10 -45 -10 -33 0 -45 -4 -45 -15 0 -11
-12 -15 -45 -15 -25 0 -45 -4 -45 -10 0 -5 -25 -10 -55 -10 -30 0 -55 -4 -55
-10 0 -5 -16 -10 -35 -10 -19 0 -35 -4 -35 -10 0 -5 -20 -10 -45 -10 -33 0
-45 -4 -45 -15 0 -11 -12 -15 -45 -15 -25 0 -45 -4 -45 -10 0 -5 -20 -10 -45
-10 -25 0 -45 -4 -45 -10 0 -5 -20 -10 -45 -10 -25 0 -45 -4 -45 -10 0 -5 -20
-10 -45 -10 -33 0 -45 -4 -45 -15 0 -11 -12 -15 -45 -15 -25 0 -45 -4 -45 -10
0 -5 -20 -10 -45 -10 -25 0 -45 -4 -45 -10 0 -5 -16 -10 -35 -10 -19 0 -35 -4
-35 -10 0 -5 -20 -10 -45 -10 -33 0 -45 -4 -45 -15 0 -11 -12 -15 -45 -15 -25
0 -45 -4 -45 -10 0 -5 -20 -10 -45 -10 -25 0 -45 -4 -45 -10 0 -5 -20 -10 -45
-10 -25 0 -45 -4 -45 -10 0 -5 -13 -10 -30 -10 -20 0 -30 -5 -30 -15 0 -11
-12 -15 -45 -15 -25 0 -45 -4 -45 -10 0 -5 -20 -10 -45 -10 -25 0 -45 -4 -45
-10 0 -5 -16 -10 -35 -10 -19 0 -35 -4 -35 -10 0 -5 -20 -10 -45 -10 -33 0
-45 -4 -45 -15 0 -11 -12 -15 -45 -15 -25 0 -45 -4 -45 -10 0 -5 -16 -10 -35
-10 -19 0 -35 -4 -35 -10 0 -5 -20 -10 -45 -10 -25 0 -45 -4 -45 -10 0 -5 -20
-10 -45 -10 -33 0 -45 -4 -45 -15 0 -10 -11 -15 -35 -15 -19 0 -35 -4 -35 -10
0 -5 -20 -10 -45 -10 -25 0 -45 -4 -45 -10 0 -5 -20 -10 -45 -10 -25 0 -45 -4
-45 -10 0 -5 -25 -10 -55 -10 -42 0 -55 -3 -55 -15 0 -12 -14 -15 -65 -15 -37
0 -65 -4 -65 -10 0 -5 -16 -10 -35 -10 -19 0 -35 5 -35 10 0 14 -47 12 -54 -2
-5 -10 -7 -10 -12 0 -4 9 -42 12 -140 12 -112 0 -134 2 -134 15 0 12 -17 15
-90 15 -53 0 -90 4 -90 10 0 6 -37 10 -90 10 -53 0 -90 4 -90 10 0 6 -33 10
-80 10 -47 0 -80 4 -80 10 0 6 -28 10 -65 10 -51 0 -65 3 -65 15 0 12 -13 15
-55 15 -30 0 -55 5 -55 10 0 6 -27 10 -60 10 -33 0 -60 4 -60 10 0 6 -20 10
-45 10 -25 0 -45 5 -45 10 0 6 -25 10 -55 10 -42 0 -55 3 -55 15 0 11 -12 15
-45 15 -25 0 -45 5 -45 10 0 6 -20 10 -45 10 -25 0 -45 5 -45 10 0 6 -20 10
-45 10 -25 0 -45 5 -45 10 0 6 -20 10 -45 10 -33 0 -45 4 -45 15 0 10 -11 15
-35 15 -19 0 -35 5 -35 10 0 6 -13 10 -30 10 -16 0 -30 5 -30 10 0 6 -20 10
-45 10 -25 0 -45 5 -45 10 0 6 -16 10 -35 10 -24 0 -35 5 -35 15 0 10 -11 15
-35 15 -19 0 -35 5 -35 10 0 6 -16 10 -35 10 -19 0 -35 5 -35 10 0 6 -13 10
-30 10 -16 0 -30 5 -30 10 0 6 -16 10 -35 10 -24 0 -35 5 -35 15 0 9 -9 15
-25 15 -14 0 -25 5 -25 10 0 6 -13 10 -30 10 -16 0 -30 5 -30 10 0 6 -16 10
-35 10 -19 0 -35 5 -35 10 0 6 -16 10 -35 10 -24 0 -35 5 -35 15 0 8 -9 15
-20 15 -11 0 -20 5 -20 10 0 6 -16 10 -35 10 -19 0 -35 5 -35 10 0 6 -11 10
-25 10 -14 0 -25 5 -25 10 0 6 -13 10 -30 10 -20 0 -30 5 -30 15 0 10 -11 15
-35 15 -19 0 -35 5 -35 10 0 6 -10 10 -23 10 -17 0 -28 11 -45 46 l-23 46 28
21 c15 11 47 40 70 65 41 42 42 43 67 27 13 -9 43 -40 65 -69 73 -98 175 -146
306 -146 195 0 365 73 521 223 224 214 377 564 425 970 17 146 7 436 -20 570
-37 185 -114 372 -198 483 -203 271 -305 365 -463 427 -101 39 -174 51 -315
51 -356 -2 -628 -133 -747 -360 -40 -75 -68 -173 -68 -238 0 -103 64 -222 141
-262 16 -8 29 -20 29 -27 0 -25 73 -98 122 -123 28 -14 75 -28 104 -31 30 -3
54 -10 54 -15 0 -5 -25 -76 -56 -156 -64 -169 -202 -457 -264 -552 -49 -76
-139 -190 -148 -190 -4 0 -25 33 -46 73 -22 39 -52 88 -68 109 -34 43 -116
100 -185 127 -134 53 -369 76 -606 60 -87 -6 -161 -9 -164 -6 -2 3 3 19 12 37
21 40 68 60 140 60 97 0 153 43 185 143 6 21 27 60 45 87 46 68 50 98 29 181
-18 69 -18 70 2 90 16 16 42 22 117 29 98 10 153 28 164 56 11 29 -20 99 -62
139 -22 22 -76 57 -120 78 -44 20 -87 41 -95 46 -22 13 -15 82 30 315 21 111
42 221 45 246 15 101 86 457 96 483 17 42 63 74 123 87 65 13 120 47 124 77 5
32 -44 117 -90 159 -140 126 -571 228 -822 193z m2249 -973 c144 -50 292 -162
376 -286 88 -131 162 -321 195 -505 28 -155 26 -478 -5 -650 -104 -589 -415
-992 -814 -1055 -140 -23 -261 4 -346 76 -41 35 -107 134 -116 174 -4 17 -10
30 -13 30 -4 0 -18 -21 -31 -46 -33 -60 -98 -117 -190 -162 -70 -35 -81 -37
-166 -36 -72 0 -99 4 -136 23 -98 47 -160 139 -181 267 -12 72 -7 84 40 84 43
0 133 39 196 84 199 142 379 448 565 961 28 77 87 246 132 375 119 345 144
390 233 410 42 9 104 -4 112 -25 3 -7 -2 -28 -12 -46 -27 -54 -50 -145 -135
-539 -115 -537 -205 -866 -285 -1049 -13 -29 -24 -59 -24 -67 0 -7 26 -23 58
-35 48 -20 76 -23 182 -24 124 0 127 0 195 35 137 69 273 241 360 457 137 336
170 702 89 982 -83 284 -273 433 -536 419 -67 -3 -97 -10 -151 -36 -161 -75
-279 -267 -336 -545 l-19 -92 -50 2 c-91 4 -193 74 -227 157 -67 163 29 412
209 540 83 60 176 102 279 126 119 28 126 28 307 26 151 -2 172 -4 245 -30z
m18 -321 c37 -8 89 -26 116 -41 43 -23 53 -35 85 -102 214 -459 -17 -1335
-402 -1524 -55 -28 -80 -34 -149 -37 -46 -1 -83 0 -83 4 0 4 24 82 54 174 67
206 127 447 210 842 76 358 101 459 127 513 10 22 19 48 19 58 0 28 -64 52
-117 44 -24 -3 -43 -4 -43 -2 0 8 29 72 36 79 11 11 72 8 147 -8z m14006 -155
c133 -67 146 -247 24 -334 -74 -52 -169 -45 -240 17 -45 40 -63 82 -63 150 0
139 154 231 279 167z m-14566 -263 c-31 -92 -59 -165 -61 -162 -12 12 61 245
99 318 28 50 14 -5 -38 -156z m-2131 48 c57 -32 194 -86 286 -114 l73 -22 -7
-57 c-3 -31 -8 -60 -10 -63 -2 -3 -29 7 -60 22 -93 47 -138 39 -253 -42 -61
-44 -101 -49 -131 -19 -44 44 -40 154 9 254 18 36 36 66 40 66 5 0 28 -11 53
-25z m15693 -169 l40 -21 0 -150 1 -150 63 -240 c48 -186 63 -263 68 -341 22
-382 -237 -633 -604 -584 -160 21 -262 90 -320 216 -65 143 -23 337 98 448 38
35 64 76 127 203 133 264 144 296 147 388 2 93 23 143 81 194 81 71 207 87
299 37z m-14882 -71 c90 -112 1 -253 -146 -231 -77 12 -81 19 -62 106 28 122
60 157 145 159 29 1 40 -6 63 -34z m7680 10 c81 -21 126 -55 164 -121 l31 -57
18 57 18 56 179 0 c165 0 179 -1 173 -17 -23 -58 -181 -564 -201 -641 -32
-122 -41 -209 -25 -256 13 -41 35 -56 79 -56 41 0 100 61 132 135 16 36 29 54
39 52 25 -5 15 -50 -33 -151 -76 -161 -151 -250 -246 -294 -44 -20 -64 -24
-110 -19 -142 12 -220 110 -222 275 0 56 -2 64 -12 49 -7 -11 -34 -53 -62 -95
-123 -191 -250 -261 -396 -219 -157 46 -230 218 -201 477 41 369 261 748 478
825 52 19 126 18 197 0z m3290 0 c81 -21 126 -55 164 -121 l31 -57 18 57 18
56 179 0 c165 0 179 -1 173 -17 -23 -58 -181 -564 -201 -641 -32 -122 -41
-209 -25 -256 13 -41 35 -56 79 -56 41 0 100 61 132 135 16 36 29 54 39 52 25
-5 15 -50 -33 -151 -76 -161 -151 -250 -246 -294 -44 -20 -64 -24 -110 -19
-142 12 -220 110 -222 275 0 56 -2 64 -12 49 -7 -11 -34 -53 -62 -95 -123
-191 -250 -261 -396 -219 -157 46 -230 218 -201 475 41 371 260 749 478 827
52 19 126 18 197 0z m1760 1 c108 -32 152 -96 152 -221 -1 -68 -8 -102 -47
-225 -90 -278 -138 -452 -138 -495 0 -81 75 -134 141 -100 36 19 82 81 105
141 18 46 21 49 43 35 11 -7 4 -28 -32 -104 -85 -180 -200 -318 -310 -371 -52
-26 -65 -28 -136 -24 -106 6 -159 36 -196 113 -23 47 -27 67 -27 142 0 104 11
153 92 424 113 376 119 409 82 452 -29 33 -62 21 -127 -46 -111 -113 -134
-164 -280 -620 l-131 -412 -181 -3 -180 -2 196 620 196 620 181 0 182 0 -34
-107 c-19 -58 -32 -108 -30 -110 1 -2 15 14 28 35 50 75 137 169 191 206 95
65 168 80 260 52z m1173 -16 c52 -22 114 -83 139 -135 40 -85 29 -204 -31
-324 -63 -126 -172 -221 -301 -261 -131 -40 -263 -18 -263 45 0 16 7 28 18 31
126 41 254 157 315 286 79 165 50 248 -74 212 -119 -36 -240 -227 -274 -434
-4 -25 -12 -48 -17 -51 -13 -9 19 -193 42 -238 26 -53 111 -126 167 -145 136
-47 315 10 428 136 25 28 48 48 52 45 17 -18 -81 -194 -157 -280 -46 -53 -147
-123 -222 -155 -58 -24 -74 -27 -203 -27 -131 0 -144 2 -197 27 -173 81 -260
259 -245 503 15 242 120 466 292 623 158 145 388 206 531 142z m2817 15 c81
-21 126 -55 164 -121 l31 -57 18 57 18 56 179 0 c165 0 179 -1 173 -17 -23
-58 -181 -564 -201 -641 -32 -122 -41 -209 -25 -256 13 -41 35 -56 79 -56 41
0 100 61 132 135 16 36 29 54 39 52 25 -5 15 -50 -33 -151 -76 -161 -151 -250
-246 -294 -44 -20 -64 -24 -110 -19 -142 12 -220 110 -222 275 0 56 -2 64 -12
49 -7 -11 -34 -53 -62 -95 -123 -191 -250 -261 -396 -219 -157 46 -230 218
-201 475 41 371 260 749 478 827 52 19 126 18 197 0z m-10667 -30 c72 -42 102
-98 112 -210 l7 -69 52 69 c65 89 165 185 223 216 36 19 59 24 120 23 128 -1
203 -51 230 -154 19 -72 6 -137 -86 -441 -48 -156 -89 -300 -91 -320 -14 -102
72 -174 147 -122 36 25 48 41 84 116 29 61 34 66 50 54 17 -13 17 -17 -13 -89
-78 -186 -185 -318 -311 -384 -44 -23 -196 -31 -259 -14 -55 15 -105 63 -120
115 -30 108 -7 235 105 579 113 345 121 436 42 436 -27 0 -44 -12 -98 -68
-101 -103 -136 -182 -275 -634 l-119 -388 -188 0 c-103 0 -188 2 -188 4 0 2
68 226 150 496 83 271 150 509 150 529 0 45 -14 61 -55 61 -43 0 -95 -39 -150
-112 -72 -95 -85 -127 -199 -488 -59 -184 -118 -370 -132 -412 l-26 -78 -177
0 -178 0 197 618 196 617 177 3 c97 1 177 -1 177 -5 0 -4 -12 -44 -27 -90 -15
-45 -23 -86 -19 -90 5 -4 11 -2 14 5 2 8 25 41 51 75 57 74 155 151 219 172
65 21 153 12 208 -20z m3919 1 c134 -63 187 -215 151 -426 -30 -174 -88 -315
-192 -472 -119 -179 -292 -330 -429 -372 -206 -65 -417 95 -442 336 l-6 61
-47 -96 c-82 -165 -155 -252 -249 -295 -46 -21 -63 -24 -117 -19 -147 14 -221
100 -231 271 -8 127 17 240 139 624 l112 352 178 0 c98 0 178 -3 178 -6 0 -4
-31 -102 -69 -218 -146 -442 -177 -566 -169 -658 7 -64 44 -104 87 -93 86 21
155 167 266 560 46 165 92 326 101 358 l17 57 184 0 c100 0 183 -2 183 -4 0
-2 -25 -93 -55 -203 -123 -439 -170 -654 -158 -715 9 -43 43 -63 87 -48 104
34 223 274 287 575 19 91 24 140 24 283 l0 172 60 0 c42 0 75 -7 110 -24z
m-11621 -6 c30 -11 57 -62 92 -171 57 -180 166 -221 471 -175 145 22 254 21
302 -3 48 -25 77 -81 92 -179 13 -87 41 -126 95 -137 l37 -6 -7 -82 c-3 -45
-6 -100 -6 -122 l0 -41 -93 -11 c-139 -16 -198 -48 -170 -92 43 -67 461 -82
601 -20 35 15 43 23 40 41 -4 31 -54 54 -148 70 -41 6 -76 13 -78 14 -2 1 5
19 16 41 11 21 32 84 47 140 19 69 33 104 44 107 38 12 204 26 309 26 218 0
403 -32 506 -88 105 -57 174 -156 183 -262 7 -78 -8 -90 -139 -104 -92 -10
-104 -13 -113 -33 -5 -13 -13 -23 -17 -23 -13 0 -9 -81 8 -150 26 -112 93
-198 189 -242 75 -34 206 -33 292 3 l63 27 30 -34 c38 -44 44 -68 38 -164 -6
-94 -39 -170 -98 -224 -54 -49 -89 -48 -168 3 -120 78 -203 87 -439 45 -182
-33 -318 -37 -385 -11 -52 20 -115 83 -148 147 -12 23 -42 103 -66 178 -56
169 -93 239 -154 296 -84 78 -160 83 -285 19 -38 -20 -88 -46 -110 -57 -24
-13 -65 -22 -105 -24 -60 -3 -72 0 -155 41 -342 169 -607 521 -716 950 -11 45
-25 86 -30 92 -16 16 -10 67 16 121 30 62 67 93 127 103 4 0 18 -3 32 -9z
m17546 -36 c0 -4 -27 -91 -61 -193 -151 -463 -191 -626 -169 -700 33 -116 141
-88 211 55 33 66 36 69 56 56 9 -6 3 -29 -21 -89 -67 -167 -170 -303 -261
-348 -28 -14 -61 -20 -110 -20 -138 0 -221 74 -245 216 -21 126 0 255 91 544
61 195 150 467 156 478 5 9 353 10 353 1z m-10140 -205 c0 -10 -13 -38 -30
-61 -39 -54 -38 -39 5 80 7 19 25 5 25 -19z m617 -14 c3 -34 -3 -47 -37 -85
l-39 -45 -1 35 c0 19 -4 50 -9 67 -8 29 -6 35 17 53 41 33 66 23 69 -25z
m6061 -60 c-12 -19 -24 -33 -25 -31 -2 1 7 31 20 67 21 60 22 62 25 31 2 -23
-4 -45 -20 -67z m-12989 58 c37 -25 42 -31 37 -58 -3 -16 -13 -94 -22 -172
-16 -135 -19 -143 -39 -143 -18 0 -24 9 -34 53 -6 28 -19 66 -27 82 -9 17 -30
56 -47 88 -22 42 -41 64 -73 83 -24 14 -44 28 -44 30 0 2 24 17 53 34 70 40
136 41 196 3z m91 -638 c0 -8 -4 -15 -10 -15 -5 0 -7 7 -4 15 4 8 8 15 10 15
2 0 4 -7 4 -15z m-169 -66 c-25 -5 -52 -15 -60 -24 -14 -13 -14 -17 0 -30 8
-9 35 -20 60 -25 40 -8 38 -9 -21 -4 -171 14 -211 52 -83 80 32 7 78 12 103
12 l45 0 -44 -9z m363 -13 c22 -6 41 -17 43 -23 6 -16 -83 -41 -167 -48 l-65
-5 45 13 c34 9 46 17 48 35 3 17 -4 26 -30 37 -33 15 -32 15 27 9 33 -4 78
-12 99 -18z m9316 -3 c1 -10 7 -35 15 -56 13 -37 12 -40 -17 -73 -29 -33 -79
-47 -92 -25 -7 10 75 171 87 171 4 0 7 -8 7 -17z m-9605 -20 c12 -17 14 -17
32 -1 15 14 30 16 72 11 28 -3 48 -10 44 -14 -13 -13 -136 -22 -197 -15 -60 8
-74 22 -28 29 54 8 65 7 77 -10z m8202 -115 c-20 -19 -57 -24 -57 -9 0 6 15
32 33 58 l32 48 6 -40 c4 -31 1 -44 -14 -57z m836 -123 c19 -17 46 -38 59 -47
l23 -17 -37 -1 c-21 0 -38 -4 -38 -10 0 -5 -25 -10 -55 -10 -30 0 -55 -4 -55
-10 0 -5 -20 -10 -45 -10 -25 0 -45 -4 -45 -10 0 -5 -12 -10 -26 -10 -25 0
-25 1 19 51 24 27 61 83 83 123 l38 73 21 -46 c12 -25 38 -60 58 -76z m2987
-575 l0 -170 45 32 c89 63 204 46 248 -36 19 -36 23 -61 27 -201 l5 -160 43
-3 c39 -3 42 -5 42 -33 l0 -29 -140 0 -140 0 0 30 c0 28 3 30 35 30 51 0 58
21 53 164 -5 130 -16 167 -55 185 -32 15 -49 14 -89 -5 -58 -28 -75 -80 -72
-220 l3 -119 43 -3 c39 -3 42 -5 42 -33 l0 -29 -140 0 -140 0 0 30 c0 27 3 30
33 30 18 0 38 5 45 12 9 9 12 90 12 304 0 325 0 324 -66 324 -31 0 -34 3 -34
29 0 33 9 35 143 39 l57 2 0 -170z m-1510 117 c0 -24 3 -85 6 -135 l7 -92 -30
0 c-28 0 -31 3 -42 53 -14 64 -41 110 -78 134 -22 14 -48 18 -133 18 l-105 0
-3 -132 -3 -133 46 0 c61 0 104 37 112 98 5 38 8 42 34 42 l29 0 0 -175 0
-175 -30 0 c-25 0 -30 4 -30 25 0 38 -25 90 -51 109 -13 9 -43 16 -66 16 l-43
0 0 -149 c0 -168 -3 -161 81 -161 48 0 49 -1 49 -30 l0 -30 -190 0 -190 0 0
30 c0 28 1 29 58 32 l57 3 0 315 0 315 -57 3 c-57 3 -58 4 -58 32 l0 30 315 0
315 0 0 -43z m4918 27 c49 -34 17 -114 -47 -114 -56 0 -81 70 -41 110 24 24
57 26 88 4z m332 -159 l0 -95 80 0 80 0 0 -30 0 -30 -81 0 -80 0 3 -176 c3
-162 5 -177 23 -190 45 -33 93 10 102 90 5 43 7 46 36 46 30 0 30 0 23 -47 -8
-60 -34 -111 -68 -136 -37 -27 -116 -34 -156 -13 -56 29 -62 55 -62 251 l0
175 -45 0 c-41 0 -45 2 -45 24 0 19 7 26 29 31 56 12 90 62 106 158 5 31 10
37 30 37 25 0 25 -1 25 -95z m-4896 -97 c57 -17 119 -82 141 -148 22 -67 17
-168 -13 -226 -84 -164 -322 -165 -406 0 -53 102 -39 229 33 309 63 71 149 93
245 65z m608 -18 c27 -28 30 -36 25 -77 -3 -29 -12 -52 -23 -60 -47 -34 -99 2
-98 68 2 48 -7 49 -40 7 -41 -56 -61 -132 -61 -243 l0 -100 53 -3 c50 -3 52
-4 52 -33 l0 -29 -155 0 -155 0 0 29 c0 28 3 30 43 33 l42 3 3 164 c2 112 -1
168 -9 177 -6 8 -29 14 -50 14 -36 0 -39 2 -39 29 0 27 2 28 61 35 34 3 79 6
100 6 l39 0 0 -57 1 -58 16 30 c50 96 135 124 195 65z m2058 15 c16 -8 37 -28
46 -44 l18 -30 38 35 c47 42 76 54 129 54 56 0 95 -24 121 -73 19 -36 22 -64
27 -202 l6 -160 33 -3 c28 -3 32 -7 32 -33 l0 -29 -130 0 -130 0 0 30 c0 26 4
30 28 30 53 0 54 5 50 169 -3 147 -4 154 -27 172 -32 26 -74 24 -110 -7 -42
-35 -53 -80 -49 -214 l3 -115 38 -3 c34 -3 37 -6 37 -33 l0 -29 -130 0 -130 0
0 29 c0 26 4 30 33 33 l32 3 3 153 c2 151 2 153 -22 177 -35 35 -79 33 -116
-3 -38 -39 -50 -88 -50 -213 0 -115 2 -119 56 -119 20 0 24 -5 24 -30 l0 -30
-130 0 -130 0 0 30 c0 26 4 30 28 30 49 0 52 12 52 176 0 162 -6 184 -51 184
-14 0 -19 7 -19 29 0 26 3 29 46 35 26 3 61 6 79 6 30 0 33 -3 40 -37 l7 -36
21 25 c46 55 136 75 197 43z m841 5 c19 -5 48 -24 65 -41 l29 -30 3 -172 c2
-108 8 -177 15 -185 6 -8 21 -12 37 -8 25 5 50 -8 50 -26 0 -14 -59 -38 -96
-38 -27 0 -44 8 -68 33 l-33 32 -40 -28 c-47 -34 -139 -47 -196 -28 -77 26
-110 111 -68 174 35 54 135 101 259 122 45 7 48 13 36 75 -9 45 -55 72 -111
67 -61 -6 -75 -20 -57 -55 19 -36 18 -48 -6 -72 -47 -47 -129 -1 -116 65 8 39
62 92 112 110 46 17 134 19 185 5z m695 -20 c47 -44 57 -83 63 -250 l6 -155
38 -3 c34 -3 37 -6 37 -33 l0 -29 -135 0 -135 0 0 30 c0 26 4 30 28 30 52 0
54 5 50 164 l-3 148 -29 25 c-40 34 -96 27 -140 -16 l-31 -31 0 -143 0 -142
38 -3 c34 -3 37 -6 37 -33 l0 -29 -135 0 -135 0 0 30 c0 27 3 30 34 30 22 0
36 6 40 16 3 9 6 85 6 169 0 142 -2 155 -19 165 -11 5 -31 10 -45 10 -22 0
-26 5 -26 29 0 27 3 29 53 35 119 14 137 8 137 -47 0 -20 1 -20 28 5 49 46 82
59 149 55 50 -2 68 -8 89 -27z m-2406 -157 c1 -186 3 -198 47 -221 47 -26 111
-3 143 51 17 27 20 51 20 149 0 106 -2 118 -19 128 -11 5 -29 10 -40 10 -17 0
-21 6 -21 30 l0 30 95 0 95 0 0 -209 c0 -226 -1 -221 56 -221 20 0 24 -5 24
-30 l0 -30 -90 0 -90 0 0 40 c0 45 -8 50 -36 19 -51 -57 -157 -75 -214 -36
-69 47 -75 62 -78 230 -4 163 -8 177 -59 177 -19 0 -23 5 -23 30 l0 30 95 0
95 0 0 -177z m2792 -35 l3 -213 43 -3 c39 -3 42 -5 42 -33 l0 -29 -145 0 -145
0 0 30 c0 28 2 30 38 30 21 0 43 5 50 12 8 8 12 59 12 164 0 173 -4 184 -71
184 -37 0 -39 2 -39 29 0 28 3 30 43 34 23 2 70 4 104 5 l63 2 2 -212z m778
182 c0 -28 -3 -30 -35 -30 -19 0 -35 -5 -35 -11 0 -6 27 -68 61 -138 l60 -126
50 119 c28 65 48 125 45 132 -3 8 -19 17 -36 20 -25 5 -30 11 -30 35 l0 29
105 0 105 0 0 -28 c0 -23 -6 -30 -33 -40 -31 -11 -39 -25 -138 -249 -57 -130
-117 -256 -132 -279 -31 -48 -95 -84 -146 -84 -41 0 -91 47 -91 84 0 32 32 66
63 66 31 0 61 -33 54 -60 -6 -24 10 -26 41 -4 24 17 82 110 82 133 0 22 -160
353 -183 379 -11 12 -29 22 -39 22 -13 0 -18 8 -18 30 l0 30 125 0 125 0 0
-30z"/>
<path d="M16716 10852 c-16 -37 -56 -120 -89 -186 -52 -102 -58 -120 -44 -127
14 -8 13 -15 -8 -62 -35 -75 -59 -189 -52 -253 12 -114 63 -168 154 -161 156
11 239 216 188 462 -16 76 -104 375 -114 387 -4 4 -20 -23 -35 -60z"/>
<path d="M9895 11109 c-108 -120 -254 -549 -255 -749 0 -91 15 -120 62 -120
69 0 171 161 261 410 66 184 90 288 85 376 -3 60 -8 77 -27 98 -38 40 -80 35
-126 -15z m105 -276 c-43 -161 -187 -506 -198 -475 -6 20 57 237 103 351 46
115 107 229 113 212 2 -6 -6 -45 -18 -88z"/>
<path d="M13183 11106 c-109 -124 -252 -547 -253 -746 0 -91 15 -120 62 -120
45 0 104 66 165 186 58 114 131 308 163 438 43 172 16 286 -66 286 -26 0 -40
-9 -71 -44z m107 -273 c-42 -158 -133 -383 -155 -383 -7 0 -15 -6 -18 -12 -2
-7 -8 -10 -12 -6 -21 20 94 340 163 452 45 74 52 58 22 -51z"/>
<path d="M18933 11106 c-109 -124 -252 -547 -253 -746 0 -91 15 -120 62 -120
45 0 104 66 165 186 58 114 131 308 163 438 43 172 16 286 -66 286 -26 0 -40
-9 -71 -44z"/>
<path d="M12404 9241 c-43 -26 -64 -84 -64 -179 1 -129 49 -201 127 -189 75
13 107 74 107 202 0 93 -21 148 -65 170 -38 20 -68 19 -105 -4z"/>
<path d="M15975 9046 c-96 -24 -135 -54 -135 -106 0 -51 27 -75 76 -67 47 8
80 30 99 67 18 35 32 120 19 119 -5 0 -31 -6 -59 -13z"/>
<path d="M5471 11289 c-290 -57 -509 -288 -607 -639 -27 -94 -27 -333 0 -410
32 -93 56 -132 126 -205 38 -38 90 -94 116 -123 147 -163 461 -174 662 -22 52
40 53 40 142 40 50 0 90 -2 90 -4 0 -2 -6 -21 -13 -42 -8 -22 -17 -51 -21 -67
l-6 -27 196 2 196 3 64 205 c171 542 193 603 243 688 51 85 96 142 139 176
l23 18 -16 -38 c-9 -22 -19 -44 -22 -51 -9 -22 38 -36 104 -30 59 4 63 3 63
-17 0 -11 -9 -41 -21 -65 -24 -54 -17 -61 61 -61 68 0 143 33 197 87 48 48 72
98 85 177 15 88 -1 139 -61 196 -26 25 -51 57 -54 72 -10 38 -62 95 -111 121
-32 17 -58 22 -121 22 -69 0 -88 -4 -135 -29 -30 -16 -83 -57 -117 -92 -35
-36 -63 -63 -63 -62 0 2 9 32 20 66 32 101 47 93 -182 90 l-202 -3 -172 -543
-171 -543 -37 -25 c-37 -25 -78 -45 -126 -59 -22 -7 -20 -3 17 41 79 96 173
269 158 293 -2 5 -16 11 -30 13 -21 4 -29 0 -40 -22 -22 -42 -102 -107 -174
-142 -74 -35 -170 -47 -236 -29 -64 17 -77 31 -83 90 l-5 52 39 -23 c80 -47
252 -18 374 64 144 96 237 271 228 431 -5 87 -25 132 -88 195 -25 26 -59 69
-74 95 -64 112 -204 166 -355 136z m215 -39 c52 -22 114 -83 139 -135 40 -85
29 -204 -31 -324 -63 -126 -172 -221 -301 -261 -131 -40 -263 -18 -263 45 0
16 7 28 18 31 126 41 254 157 315 286 79 165 50 248 -74 212 -119 -36 -240
-227 -274 -434 -4 -25 -12 -48 -17 -51 -13 -9 19 -193 42 -238 26 -53 111
-126 167 -145 136 -47 315 10 428 136 25 28 48 48 52 45 17 -18 -81 -194 -157
-280 -46 -53 -147 -123 -222 -155 -58 -24 -74 -27 -203 -27 -131 0 -144 2
-197 27 -173 81 -260 259 -245 503 15 242 120 466 292 623 158 145 388 206
531 142z m1305 20 c50 -14 99 -49 126 -89 18 -27 23 -48 23 -101 0 -123 -49
-209 -150 -264 -52 -29 -162 -47 -173 -30 -3 5 4 36 15 69 38 114 6 205 -73
205 -45 0 -81 -23 -143 -91 -95 -106 -137 -202 -272 -629 l-121 -385 -186 -3
-186 -2 10 27 c5 16 96 305 203 643 l194 615 185 3 185 2 -43 -135 c-23 -74
-42 -135 -40 -135 1 0 19 26 40 58 133 202 266 281 406 242z m-197 -239 c6 -9
-74 -114 -82 -107 -2 2 4 29 14 60 15 46 22 56 40 56 13 0 25 -4 28 -9z
m-1271 -172 c-10 -17 -33 -47 -51 -67 -26 -29 -30 -31 -21 -12 12 27 77 110
85 110 3 0 -3 -14 -13 -31z m-118 -379 c-28 -12 -55 -12 -55 0 0 6 17 10 38 9
30 0 33 -2 17 -9z"/>
</g>
</svg>
